<?xml version="1.0" encoding="UTF-8"?>
<svg xmlns="http://www.w3.org/2000/svg" viewBox="0 0 139 125">
  <path d="m119.81 21.82c-5.38 0-9.74 3.28-9.74 8.66 0-5.38-4.36-8.66-9.74-8.66a9.74 9.74 0 0 0 -9.74 9.74 10.87 10.87 0 0 0  .31 2.53 9.77 9.77 0 0 1  1.86 1.91 9.69 9.69 0 0 1  17.49 5.77c0 3.79-2.14 7-3.94 9.05-.27.31-.61.67-1 1.07 2.67 2.6 4.74 4.6 4.74 4.6s11.6-11.13 15.15-15.15c1.76-2 4.33-5.56 4.33-9.74a9.74 9.74 0 0 0 -9.72-9.78z" fill="#4dbdeb"></path>
  <path d="m100.55 30.13a11.56 11.56 0 0 0 -7.79 3 11.59 11.59 0 0 0 -19.39 8.59c0 3.47 1.53 7 4.42 10.31s12 12 12.34 12.35l2.64 2.53 2.64-2.53c.38-.37 9.43-9.05 12.34-12.35s4.42-6.84 4.42-10.31a11.61 11.61 0 0 0 -11.62-11.59zm4.33 19.39c-2.88 3.21-12.12 12.12-12.12 12.12s-9.28-8.91-12.12-12.12c-1.41-1.6-3.46-4.45-3.46-7.79a7.79 7.79 0 0 1 7.82-7.79 8 8 0 0 1  7.75 6.06h0a8 8 0 0 1 7.79-6.06 7.79 7.79 0 0 1  7.79 7.79c.01 3.34-2.04 6.19-3.46 7.79z" fill="#4dbdeb"></path>
  <g fill="none" stroke="#4dbdeb" stroke-width="4.4">
    <path d="m42.94 120c3.08-2.68 8.24-7.13 9.2-7.91 1.26-1 3.56-2.71 5.93-2.71h35.65a12.87 12.87 0 0 0 2.58-.42 7.77 7.77 0 0 0  3.55-2.47l22.42-27.86a15.66 15.66 0 0 0 -22 2.37c-.4.49-1.6 1.87-1.6 1.87a7.82 7.82 0 0 1 -6.51 3.48h-12.71" stroke-linecap="round" stroke-linejoin="round"></path>
    <path d="m63.28 89.8h5.22c8.65 0 15.66-5.45 15.66-12.18h-31.32c-1.76 0-2.13.28-2.13.28a7.81 7.81 0 0 0 -3.53 2l0 0-37.68 35" stroke-linecap="round" stroke-linejoin="round"></path>
    <path d="m52.84 89.8h10.44" stroke-miterlimit="10"></path>
  </g>
</svg>
