<?xml version="1.0" encoding="UTF-8"?>
<svg xmlns="http://www.w3.org/2000/svg" viewBox="0 0 125 125">
  <g fill="none">
    <path d="m63.51 79.63a27.62 27.62 0 0 0 -1.92-5.25c0 .1-.06.2-.09.31a24.84 24.84 0 0 0 1 16.09 18.89 18.89 0 0 0  1 1.94 25.75 25.75 0 0 0  .01-13.09z"></path>
    <path d="m66.82 96.71a12.92 12.92 0 0 0 5.24 2.77c4.13 1.05 8.59 0 12.54-3.08a24.83 24.83 0 0 0 8.6-13.64c2.91-11.44-1.83-22.56-10.57-24.76a12.64 12.64 0 0 0 -3.13-.39 15.51 15.51 0 0 0 -9.41 3.39 23.28 23.28 0 0 0 -6.49 8 31.11 31.11 0 0 1  4.17 9.48 29.43 29.43 0 0 1 -.95 18.23z"></path>
    <path d="m52.6 106.39 42.06 9.9" stroke="#4dbdeb" stroke-linecap="round" stroke-miterlimit="10" stroke-width="2.4"></path>
    <path d="m46.42 120 29.69-12.37" stroke="#4dbdeb" stroke-linecap="round" stroke-miterlimit="10" stroke-width="2.4"></path>
    <path d="m21.68 92.78 14.84 12.37" stroke="#4dbdeb" stroke-linecap="round" stroke-miterlimit="10" stroke-width="2.4"></path>
    <path d="m98.38 102.68 12.37 4.95" stroke="#4dbdeb" stroke-linecap="round" stroke-miterlimit="10" stroke-width="2.4"></path>
    <path d="m63.53 92.72a25.75 25.75 0 0 0 0-13.08 27.62 27.62 0 0 0 -1.92-5.25 25.19 25.19 0 0 0 -3-4.79c-3.54-4.4-8.28-7.06-13.06-7.06a12.64 12.64 0 0 0 -3.13.39c-8.79 2.22-13.53 13.34-10.62 24.78a27.23 27.23 0 0 0 2.82 6.92 161.06 161.06 0 0 0  27.28 2.28c.2-.38.4-.77.58-1.18a21.23 21.23 0 0 0 1.05-3.01z"></path>
    <path d="m93.2 82.76c2.91-11.44-1.83-22.56-10.57-24.76a12.64 12.64 0 0 0 -3.13-.39 15.51 15.51 0 0 0 -9.41 3.39 23.28 23.28 0 0 0 -6.49 8 31.11 31.11 0 0 1  4.17 9.48 29.43 29.43 0 0 1 -1 18.16l.19.15a163.52 163.52 0 0 0 18.83-1.5 25.3 25.3 0 0 0  7.41-12.53z"></path>
  </g>
  <path d="m79.13 118.28a91.34 91.34 0 0 1 -16.45 1.44h-.37a91.94 91.94 0 0 1 -15.4-1.26l8.18-3.46c2.44.21 4.85.31 7.19.31h.42q1.74 0 3.52-.08zm43.37-37.28a6.35 6.35 0 0 1 -1.11 3.47c-3.72 14.83-15.76 26-32.92 31.45l-9.47-2.18c14.31-2.82 28.15-9.61 34.93-22.09-6.24 3.6-15.63 6.23-26.21 7.82a170 170 0 0 1 -22.19 1.8h-1.21-1.82q-1.94 0-3.89 0a170.88 170.88 0 0 1 -20.11-1.6c-2.25-.32-4.46-.69-6.59-1.1-8.38-1.57-15.71-3.93-20.91-6.91 6.87 12.64 21 19.44 35.5 22.19l-7.07 3c-18.75-5.11-32-16.68-35.89-32.38a6.32 6.32 0 0 1 -1.04-3.47c0-6.49 11.5-12.21 28.77-15.39a17.89 17.89 0 0 1 10-7c5.87-1.45 11.95.39 16.9 4.39q2 0 4 0a26.26 26.26 0 0 1 5.21-5.41c5-3.88 10.84-5.25 16.31-3.85 6.05 1.54 10.63 6.27 13 12.49 15.6 3.23 25.81 8.66 25.81 14.77zm-59 11.68a25.75 25.75 0 0 0 0-13.08 27.62 27.62 0 0 0 -1.92-5.25 25.19 25.19 0 0 0 -3-4.79c-3.54-4.4-8.28-7.06-13.06-7.06a12.64 12.64 0 0 0 -3.13.39c-8.76 2.26-13.5 13.38-10.59 24.82a27.23 27.23 0 0 0 2.82 6.92 161.06 161.06 0 0 0  27.28 2.28c.2-.38.4-.77.58-1.18a21.23 21.23 0 0 0 1.05-3.01zm19.13-34.68a12.64 12.64 0 0 0 -3.13-.39 15.51 15.51 0 0 0 -9.41 3.39 23.28 23.28 0 0 0 -6.49 8 31.11 31.11 0 0 1  4.17 9.48 29.43 29.43 0 0 1 -1 18.16l.19.15a163.52 163.52 0 0 0 18.83-1.5 25.3 25.3 0 0 0  7.41-12.53c2.91-11.44-1.83-22.56-10.57-24.76z" fill="#4dbdeb"></path>
</svg>
