<?xml version="1.0" encoding="UTF-8"?>
<svg xmlns="http://www.w3.org/2000/svg" viewBox="0 0 125 125">
  <g fill="#4dbdeb">
    <path d="m87.65 36.31a2.19 2.19 0 0 0 1.13-4c-.69-.44-1.4-.86-2.1-1.27a24.93 24.93 0 0 1  .97 5.27z"></path>
    <path d="m55.64 115c-.9-.15-1.81-.34-2.7-.55a2.2 2.2 0 0 0 -1 4.28c1 .23 2 .43 3 .6a2.2 2.2 0 0 0  .74-4.34z"></path>
    <path d="m45.13 111.79c-.39-.17-.76-.37-1.14-.56a25 25 0 0 1 -4.32 2.28 2.19 2.19 0 0 0  .92.94c.89.47 1.81.92 2.73 1.34a2.2 2.2 0 1 0 1.81-4z"></path>
    <path d="m17.39 68.74a25 25 0 0 1 2.44-1.28 2.18 2.18 0 0 0  .17-.6c.11-.9.26-1.82.43-2.72a2.2 2.2 0 0 0 -4.32-.82c-.19 1-.35 2-.47 3a2.19 2.19 0 0 0 1.75 2.42z"></path>
    <path d="m19.89 57.46a2.2 2.2 0 0 0 2.86-1.22c.34-.85.71-1.7 1.11-2.52a2.2 2.2 0 1 0 -4-1.9c-.44.91-.85 1.85-1.22 2.79a2.2 2.2 0 0 0 1.25 2.85z"></path>
    <path d="m66.63 115.46c-.9.08-1.83.13-2.75.15a2.2 2.2 0 0 0 0 4.4h0c1 0 2-.08 3-.16a2.2 2.2 0 0 0 -.37-4.38z"></path>
    <path d="m77.37 113.14c-.86.3-1.74.59-2.62.83a2.2 2.2 0 1 0 1.2 4.23c1-.27 1.95-.58 2.9-.92a2.2 2.2 0 0 0 -1.47-4.15z"></path>
    <path d="m104.32 59.65c.27.87.51 1.77.72 2.66a2.2 2.2 0 0 0 2.14 1.69 2.23 2.23 0 0 0  .51-.06 2.2 2.2 0 0 0  1.63-2.65c-.23-1-.5-2-.79-2.93a2.2 2.2 0 0 0 -4.21 1.29z"></path>
    <path d="m25 47.1a2.2 2.2 0 0 0 3.08-.46c.54-.73 1.12-1.46 1.71-2.16a2.2 2.2 0 1 0 -3.37-2.84c-.65.77-1.29 1.58-1.88 2.38a2.2 2.2 0 0 0  .46 3.08z"></path>
    <path d="m108.28 68.2a2.19 2.19 0 0 0 -1.91 1.31 25.17 25.17 0 0 1  4.24 2.79q0-1 0-2a2.2 2.2 0 0 0 -2.2-2.11z"></path>
    <path d="m101.16 52a2.2 2.2 0 1 0 3.84-2c-.47-.89-1-1.77-1.51-2.63a2.2 2.2 0 1 0 -3.74 2.31c.52.74.98 1.54 1.41 2.32z"></path>
    <path d="m34.34 39.18a2.19 2.19 0 0 0 1.38-.49c.6-.49 1.23-1 1.86-1.41a25 25 0 0 1  .42-3.77 2.19 2.19 0 0 0 -2.63-.08c-.82.58-1.63 1.2-2.42 1.83a2.2 2.2 0 0 0 1.39 3.91z"></path>
    <path d="m94.8 43.06a2.2 2.2 0 0 0 3.24-3c-.68-.74-1.39-1.47-2.12-2.17a2.2 2.2 0 1 0 -3 3.18c.62.66 1.27 1.32 1.88 1.99z"></path>
    <circle cx="94.8" cy="91.46" r="6.13"></circle>
  </g>
  <path d="m85.86 98.57a17.51 17.51 0 0 0 17.88 0" fill="none" stroke="#4dbdeb" stroke-linecap="round" stroke-miterlimit="10" stroke-width="2.4"></path>
  <path d="m74.64 34.26h-8.1v-8.1h-7.79v8.1h-8.11v7.79h8.11v8.11h7.79v-8.11h8.1z" fill="#4dbdeb"></path>
  <path d="m80.8 91.73a19.79 19.79 0 0 1 28 0" fill="none" stroke="#4dbdeb" stroke-linecap="round" stroke-miterlimit="10" stroke-width="4.4"></path>
  <path d="m94.8 81.83v3.5" fill="none" stroke="#4dbdeb" stroke-linecap="round" stroke-miterlimit="10" stroke-width="4.4"></path>
  <path d="m83.4 84.89 1.29 2.25" fill="none" stroke="#4dbdeb" stroke-linecap="round" stroke-miterlimit="10" stroke-width="4.4"></path>
  <path d="m104.9 87.55 1.29-2.66" fill="none" stroke="#4dbdeb" stroke-linecap="round" stroke-miterlimit="10" stroke-width="4.4"></path>
  <path d="m39.19 91.06a42.38 42.38 0 0 0  .43-8.35c-.1-1.43-.22-3.41-1.73-4-2.46-1-5.22.39-7.69.37s-5.25-1.38-7.69-.37c-1.51.63-1.63 2.62-1.73 4a42.4 42.4 0 0 0  .43 8.35h0a40.63 40.63 0 0 0 1.26 6.37 14.57 14.57 0 0 0  1.65 4.16 1.3 1.3 0 0 0  2.4-.25c.54-1.25.61-2.68 1.14-4 .41-1 1.29-2.64 2.54-2.61s2.12 1.63 2.54 2.61c.53 1.28.6 2.7 1.14 4a1.3 1.3 0 0 0 2.4.25 14.57 14.57 0 0 0  1.65-4.16 40.66 40.66 0 0 0  1.26-6.37z" fill="none" stroke="#4dbdeb" stroke-linecap="round" stroke-linejoin="round" stroke-width="2.4"></path>
  <path d="m33.88 82.79c-4 1.34-4.68-4.49-9.35-4.49" fill="none" stroke="#4dbdeb" stroke-linecap="round" stroke-linejoin="round" stroke-width="2.4"></path>
  <path d="m30.21 115.38a25.08 25.08 0 1 1 25.08-25.09 25.11 25.11 0 0 1 -25.08 25.09zm0-45.76a20.68 20.68 0 1 0 20.68 20.67 20.7 20.7 0 0 0 -20.68-20.68zm32.44-6.37a25.08 25.08 0 1 1 25.08-25.09 25.11 25.11 0 0 1 -25.09 25.08zm0-45.76a20.68 20.68 0 1 0 20.68 20.67 20.7 20.7 0 0 0 -20.69-20.68zm32.15 99.35a25.08 25.08 0 1 1 25.08-25.08 25.11 25.11 0 0 1 -25.09 25.07zm0-45.76a20.68 20.68 0 1 0 20.68 20.68 20.7 20.7 0 0 0 -20.69-20.7z" fill="#4dbdeb"></path>
</svg>
