<?xml version="1.0" encoding="UTF-8"?>
<svg xmlns="http://www.w3.org/2000/svg" viewBox="0 0 125 125">
  <circle cx="86.69" cy="26.55" fill="#4dbdeb" r="2.5"></circle>
  <circle cx="72" cy="26.55" fill="#4dbdeb" r="2.5"></circle>
  <path d="m21.69 46.75c-1-.52-4.18 0-7.41.83l14 6.26.44-.22c-2.85-3.17-5.85-6.25-7.03-6.87z" fill="none"></path>
  <path d="m35.55 44.41c-.63-1.08-5.14-3.25-9.84-5.06l7 12.32 1.81-.91c.95-2.92 1.48-5.54 1.03-6.35z" fill="none"></path>
  <path d="m31 52.51-1.56-1.71 1.1 1.95z" fill="#4dbdeb"></path>
  <g fill="none">
    <path d="m86.49 40.39-7.72-6.95-43.45 21.81-1.32.67-1.3.65-.53.26.64-.12 1.62-.3.21.25a1.19 1.19 0 0 0  .15-.24v-.09l48.21-8.87a2.2 2.2 0 0 1  .72-.45z"></path>
    <path d="m76.72 50.85a20.94 20.94 0 0 0 4 .4c.52 0 1 0 1.57-.08 0-.46 0-.91 0-1.35z"></path>
    <path d="m86.69 48.23a2.19 2.19 0 0 0 -.63-1.14l-.13.3a2.18 2.18 0 0 1  .77 1.61 2.17 2.17 0 0 0 -.01-.77z"></path>
  </g>
  <path d="m117.32 117.84c-19.35-40-15.67-85.65-15.63-86.1a2.19 2.19 0 0 0 0-.52c0-.31 0-.61 0-.92a21 21 0 1 0 -41.9 0 20.65 20.65 0 0 0  1.27 7.1h0l-23.58 11.85c.64-2.38.91-4.72.15-6-1.57-2.74-11.25-6.25-14.19-7.25a1.2 1.2 0 0 0 -1.44 1.68l7.42 13.11c-2.51-2.71-5.23-5.43-6.62-6.17-2.88-1.51-10.8 1.08-12.33 1.62a1.2 1.2 0 0 0 -.1 2.23l15.18 6.77-9.16 4.6a2.2 2.2 0 0 0 1 4.17 2.16 2.16 0 0 0  .4 0l10.36-1.91c-5.83 10-16.52 29.39-16.52 36.31 0 9.8 9.46 21.64 21.2 21.64s21.17-11.89 21.17-21.69c0-7.3-11.89-28.43-17.43-37.87l45.75-8.44c.32 16.58 3.19 46.33 9.14 67.34a2.2 2.2 0 1 0 4.23-1.2c-6-21.15-8.8-51.36-9-67.4a2.18 2.18 0 0 0  .44-.65l4-9.5a2.2 2.2 0 0 0 -.56-2.49l-10-9a2.2 2.2 0 0 0 -2.46-.33l-13.11 6.59a16.27 16.27 0 0 1 -.84-5.11 16.55 16.55 0 1 1  33.1 0q0 .56 0 1.1a2.18 2.18 0 0 0 0 .38c-.33 4.77-2.8 48.91 16.08 88a2.2 2.2 0 0 0 4-1.91zm-91.62-78.5c4.7 1.82 9.22 4 9.84 5.06.47.82-.07 3.43-1.06 6.34l-1.81.91zm2.62 14.5-14-6.26c3.23-.87 6.42-1.35 7.41-.83 1.18.62 4.18 3.7 7.07 6.87zm23.29 44.52c0 8.66-8.67 19.24-18.8 19.24-6.51 0-12.41-4.37-15.8-9.79 13.5-3.46 21.79-9.47 24.62-17.9 1.68-5 1.36-10.91-.9-17.25 5.6 10.34 10.88 21.29 10.88 25.7zm-12.25-9.22c-2.59 7.73-10.52 13.27-23.54 16.49a17.1 17.1 0 0 1 -1.82-7.27c0-6.11 10.13-24.85 17.22-36.88l.72-.13c3.06 4.22 11.06 16.8 7.42 27.79zm39.42-55.7 7.72 6.95-2.79 6.61-.15.35-.57.1-50.18 9.26-.64.12.53-.26 1.3-.65z" fill="#4dbdeb"></path>
</svg>
