<?xml version="1.0" encoding="UTF-8"?>
<svg xmlns="http://www.w3.org/2000/svg" viewBox="0 0 125 125">
  <g fill="#4dbdeb">
    <path d="m79 54.12a16.73 16.73 0 0 0 -30.73-4.84c8.08-2.28 22.45 4.87 30.73 4.84z"></path>
    <path d="m46.75 63.09a16.73 16.73 0 0 0 29.66 4.23c-7.53 1.32-22.05-8.03-29.66-4.23z"></path>
    <path d="m74.84 68.66c-3.3 0-7.31-1.27-11.46-2.58-7.58-2.39-15.41-4.86-18.6.45a1.2 1.2 0 0 1 -2.23-.62v-13.33a1.2 1.2 0 0 1  .17-.62c4.15-6.92 14.68-4 24-1.5 6.75 1.85 13.73 3.76 16.22 1.27a1.2 1.2 0 0 1 2 1.23l-4.5 13.34a1.21 1.21 0 0 1 -.29.47 7.16 7.16 0 0 1 -5.31 1.89zm-23.69-7.66c4 0 8.63 1.46 13 2.82 5.7 1.8 11.58 3.66 14.17 1.45l3.36-10.27c-3.91 1-9.68-.58-15.68-2.21-8.72-2.39-17.74-4.85-21.1.15v9.85a10 10 0 0 1 6.25-1.79z"></path>
    <path d="m92.85 105.8h-.06l1.78 4.2.11-.05c-.68-1.31-1.24-2.72-1.83-4.15z"></path>
    <path d="m33.77 25.7h59c3.49 17.73 9.27 58.14 3 75.23l4.51.27c7.02-22.2-1.89-69.54-3.4-77.2 0 0 0-.08 0-.12l1.5-8a2.2 2.2 0 0 0 -2.16-2.61h-66a2.2 2.2 0 0 0 -2.16 2.61l1.5 8s0 .08 0 .12c-1.73 8.72-13.09 69.17.69 84.92a2.18 2.18 0 0 0  .46.4l.78.5a2.21 2.21 0 0 0 1.19.35h15.5a27.16 27.16 0 0 1 1.85-4.4h-16.61c-10.26-12.45-3.53-60.33.35-80.07zm59.83-8-.68 3.6h-59.34l-.68-3.6z"></path>
  </g>
  <circle cx="109.75" cy="108.5" fill="none" r="2" stroke="#4dbdeb" stroke-linecap="round" stroke-linejoin="round"></circle>
  <path d="m104.13 112.12a1.5 1.5 0 0 0 0-3 1.5 1.5 0 0 0  0 3z" fill="#4dbdeb"></path>
  <path d="m58.13 106.12a1.5 1.5 0 0 0 0-3 1.5 1.5 0 0 0  0 3z" fill="#4dbdeb"></path>
  <path d="m82.65 102.37a39.29 39.29 0 0 0 10.49 7.37c-.07-.18-.13-.33-.21-.52-1.37-3.16-5.58-5.45-10.28-6.85z" fill="none"></path>
  <path d="m78.57 101.4a37.64 37.64 0 0 0 -6.69-.67h-.58c1.7 1.39 3.38 2.94 5 4.47l.52.48c.4.37.89.78 1.45 1.23a1.2 1.2 0 0 1  .58.45c4.75 3.65 13.34 8.85 15.14 7.56.24-.17.41-.82.11-2.2a39.88 39.88 0 0 1 -15.53-11.32z" fill="none"></path>
  <path d="m74.72 107c-4.81-4.42-9.78-9-14.27-9a6.25 6.25 0 0 0 -1.05.09c-2.83.48-5.4 2.94-7.85 7.52-3.29 6.15-2.74 8.22-2.12 8.9 2.4 2.65 14.16-2.18 20.48-4.77 2.05-.84 3.93-1.62 5.46-2.16l-.14-.11z" fill="none"></path>
  <path d="m90.41 102.94c-.2-.5-.46-1.09-.78-1.73a1.21 1.21 0 0 1 -.33-.66c-2.65-5.23-8-13.38-10.23-13.38h-.15c-.47.08-1.32 1.36-1.47 5.63a10.77 10.77 0 0 0 2.48 6.44 31.56 31.56 0 0 1  10.61 4z" fill="none"></path>
  <path d="m98.42 102.3c-2.22-.13-4.24-.25-5.86-.41l.07.16.26.65c2.62 6.55 5.32 13.32 10 14.65 2.77.79 6.14-.31 10.33-3.38 5.62-4.12 6-6.22 5.76-7.11-1.04-3.44-13.74-4.17-20.56-4.56z" fill="none"></path>
  <path d="m94.15 112.73c.3 1.38.13 2-.11 2.2-1.81 1.28-10.39-3.91-15.14-7.56a1.2 1.2 0 0 0 -.58-.45c-.56-.44-1-.86-1.45-1.23l-.52-.48c-1.67-1.53-3.35-3.08-5-4.47h.58a37.64 37.64 0 0 1 6.69.67 21 21 0 0 1 -1.83-2.7 30.94 30.94 0 0 0 -8.29-.12c-3.11-2.11-6.25-3.4-9.44-2.87-3.62.62-6.74 3.48-9.56 8.76-3.12 5.84-3.69 9.54-1.78 11.64a5.6 5.6 0 0 0 4.28 1.56c4.4 0 11-2.53 18.8-5.72 2.8-1.15 5.26-2.16 6.81-2.61 4.53 3.43 14.2 10.09 17.79 7.54a2.87 2.87 0 0 0 1.07-1.5 23.64 23.64 0 0 1 -1.54-2.39zm-24.23-3c-6.32 2.6-18.09 7.43-20.48 4.77-.62-.69-1.17-2.75 2.12-8.9 2.45-4.58 5-7 7.85-7.52a6.25 6.25 0 0 1 1.05-.08c4.49 0 9.45 4.56 14.27 9l .52.48.14.11c-1.54.53-3.39 1.3-5.47 2.15z" fill="#4dbdeb"></path>
  <path d="m82.65 102.37a39.93 39.93 0 0 0 -4.09-1 39.88 39.88 0 0 0  15.58 11.33 18.47 18.47 0 0 0 -1-3 39.29 39.29 0 0 1 -10.49-7.33z" fill="#4dbdeb"></path>
  <path d="m121.25 106.18c-1.38-4.68-10.68-5.58-22.69-6.28-3-.17-5.68-.33-7.27-.6-2.6-5.05-8.42-15.3-12.78-14.49-2.86.5-3.35 4.75-3.46 7.9a11.46 11.46 0 0 0 1.68 6c1 .14 2.12.31 3.2.54a10.77 10.77 0 0 1 -2.48-6.44c.16-4.27 1-5.54 1.47-5.63h.15c2.26 0 7.58 8.15 10.23 13.38a1.21 1.21 0 0 0  .33.66c.31.64.58 1.23.78 1.73l.13.32a11.84 11.84 0 0 1 4.6 5c1 2.23 2 5.13 1.38 7.12a11.08 11.08 0 0 0 5.69 4.27 8.84 8.84 0 0 0  2.46.34c2.93 0 6.21-1.35 9.95-4.1 5.33-3.9 7.44-7 6.63-9.72zm-8.06 7.82c-4.19 3.07-7.57 4.18-10.33 3.38-4.64-1.33-7.34-8.1-10-14.65l-.26-.65-.07-.16c1.61.17 3.64.28 5.86.41 6.82.39 19.51 1.13 20.53 4.56.29.85-.11 2.96-5.73 7.11z" fill="#4dbdeb"></path>
  <path d="m82.65 102.37a26.28 26.28 0 0 1 -2.73-3.13c-1.08-.22-2.15-.4-3.2-.54a21 21 0 0 0 1.83 2.7 39.93 39.93 0 0 1  4.1.97z" fill="#4dbdeb"></path>
  <path d="m95.13 108.26a11.84 11.84 0 0 0 -4.6-5l .13.33c.84 2.1 1.69 4.23 2.62 6.22l-.14-.06a18.47 18.47 0 0 1 1 3l .78.26a23.64 23.64 0 0 0 1.58 2.39c.65-2-.39-4.91-1.37-7.14z" fill="#4dbdeb"></path>
</svg>
