<?xml version="1.0" encoding="UTF-8"?>
<svg xmlns="http://www.w3.org/2000/svg" viewBox="0 0 125 125">
  <path d="m85.3 78.38a33.46 33.46 0 0 0 -4.54-2.9 2.17 2.17 0 0 0 -.14 1c .11 1.22 1.13 11.09 5.13 16.83a40.45 40.45 0 0 1 -54.24 0c4-5.75 5-15.61 5.13-16.83a2.2 2.2 0 1 0 -4.38-.4c-.3 3.24-1.83 12.4-5.29 15.87a2.2 2.2 0 0 0  .03 3.05 44.84 44.84 0 0 0  63.34 0 2.2 2.2 0 0 0  0-3.11c-2.86-2.79-4.41-9.41-5.04-13.51z" fill="#4dbdeb"></path>
  <path d="m59.59 67.17s21.52-7.17 38.25 14.35" fill="none" stroke="#4dbdeb" stroke-linecap="round" stroke-linejoin="round" stroke-width="4.4"></path>
  <circle cx="100.23" cy="83.91" fill="#4dbdeb" r="4.78"></circle>
  <g fill="none" stroke="#4dbdeb" stroke-linecap="round" stroke-linejoin="round" stroke-width="2.4">
    <path d="m100.59 87.55s2.41 24.36 13.47 32.45"></path>
    <path d="m102.38 84.68a47.56 47.56 0 0 0 20.22 26.65"></path>
    <path d="m101 85s6 25.61 19.81 32.19"></path>
  </g>
  <path d="m112.85 65.08-52.59-16.74a2.21 2.21 0 0 0 -1.31 0l-54.95 16.73a2.2 2.2 0 0 0 0 4.21l54.95 16.72a2.2 2.2 0 0 0 1.31 0l24.74-7.86a33.39 33.39 0 0 0 -5-3l-20.43 6.46-47.41-14.43 47.41-14.43 45.36 14.43-19.24 6.12a38.56 38.56 0 0 1 4.31 3.25l22.85-7.27a2.2 2.2 0 0 0 0-4.19z" fill="#4dbdeb"></path>
</svg>
