<?xml version="1.0" encoding="UTF-8"?>
<svg xmlns="http://www.w3.org/2000/svg" viewBox="0 0 140 125">
  <g stroke="#4dbdeb" stroke-miterlimit="10">
    <path d="m16.25 35h92.45v85h-92.45z" fill="none" stroke-width="4.4"></path>
    <path d="m15.47 55h94" fill="#fff" stroke-width="4.4"></path>
    <path d="m88.17 27v16" fill="#fff" stroke-linecap="round" stroke-width="4.4"></path>
    <path d="m36.78 27v16" fill="#fff" stroke-linecap="round" stroke-width="4.4"></path>
    <path d="m28.21 35h7.71" fill="#fff" stroke-width="4.4"></path>
    <g fill="none" stroke-width="2.4">
      <path d="m120.08 17.33a16.91 16.91 0 0 1 -6.4 6.87 16.91 16.91 0 0 1  6.29 7 16.91 16.91 0 0 1  6.4-6.87 16.91 16.91 0 0 1 -6.29-7z" stroke-linecap="round"></path>
      <path d="m130.07 38.79a12 12 0 0 1 -4.54 4.87 12 12 0 0 1  4.47 4.94 12 12 0 0 1  4.54-4.87 12 12 0 0 1 -4.47-4.94z" stroke-linecap="round"></path>
      <path d="m27.87 76.01v-14h14"></path>
      <path d="m46.27 76.01v-14h14"></path>
      <path d="m64.67 76.01v-14h14"></path>
      <path d="m83.07 76.01v-14h14"></path>
      <path d="m27.87 94.41v-14h14"></path>
      <path d="m46.27 94.41v-14h14"></path>
      <path d="m64.67 94.41v-14h14"></path>
      <path d="m83.07 94.41v-14h14"></path>
      <path d="m27.87 112.81v-14h14"></path>
      <path d="m46.27 112.81v-14h14"></path>
      <path d="m64.67 112.81v-14h14"></path>
      <path d="m83.07 112.81v-14h14"></path>
    </g>
  </g>
</svg>
